<svg width="50" height="50" viewBox="0 0 50 50" fill="none" xmlns="http://www.w3.org/2000/svg">
<path d="M11.4362 1.59574H17.8214V8.99564C17.5528 9.78489 17.4202 10.5732 17.4202 11.4005C17.4202 15.58 20.8204 18.9803 25 18.9803C29.1795 18.9803 32.5798 15.58 32.5798 11.4005C32.5798 10.5731 32.4472 9.78479 32.1786 8.99543V1.59574H36.1702V11.2419L35.3537 13.2132C35.185 13.6203 35.3783 14.087 35.7855 14.2556C36.1927 14.4247 36.6594 14.2311 36.828 13.8238L36.9681 13.4855L37.1082 13.8238C37.2354 14.1312 37.5325 14.3166 37.8456 14.3166C37.9473 14.3166 38.0509 14.2969 38.1506 14.2556C38.5578 14.087 38.7512 13.6203 38.5825 13.2132L37.766 11.2419V1.59574H38.5638C39.0046 1.59574 39.3617 1.23862 39.3617 0.797872C39.3617 0.357128 39.0046 0 38.5638 0H11.4362C10.9955 0 10.6383 0.357128 10.6383 0.797872C10.6383 1.23862 10.9955 1.59574 11.4362 1.59574ZM25 17.3846C21.7004 17.3846 19.016 14.7002 19.016 11.4005C19.016 10.8129 19.1011 10.2493 19.2738 9.6867C19.9172 9.38223 20.6356 9.22234 21.3696 9.22234C22.5065 9.22234 23.6146 9.6234 24.4897 10.3515C24.6376 10.4746 24.8188 10.5361 25 10.5361C25.1813 10.5361 25.3625 10.4746 25.5104 10.3515C26.3854 9.6233 27.4935 9.22234 28.6304 9.22234C29.3645 9.22234 30.0828 9.38223 30.7262 9.6867C30.8989 10.2493 30.9841 10.8128 30.9841 11.4005C30.9841 14.7002 28.2997 17.3846 25 17.3846ZM30.5829 7.92223C29.9575 7.72734 29.2981 7.6266 28.6304 7.6266C27.3347 7.6266 26.0673 8.01894 25 8.74138C23.9326 8.01883 22.6652 7.6266 21.3696 7.6266C20.702 7.6266 20.0427 7.72734 19.4171 7.92223V1.59574H30.5829V7.92223V7.92223Z" fill="#CC8719"/>
<path d="M49.2021 34.1399H39.3391C39.0746 29.3332 36.4355 25.1495 32.578 22.7435C32.5295 22.7049 32.4774 22.6732 32.4232 22.6474C30.2556 21.3333 27.7146 20.5761 25 20.5761C22.2854 20.5761 19.7444 21.3333 17.5767 22.6474C17.5226 22.6732 17.4705 22.7048 17.4221 22.7434C13.5645 25.1494 10.9253 29.3331 10.6607 34.1399H0.797872C0.357234 34.1399 0 34.497 0 34.9378C0 35.3785 0.357234 35.7356 0.797872 35.7356H3.24883L4.25755 49.2615C4.28872 49.6808 4.63862 50 5.05234 50C5.07223 50 5.09234 49.9993 5.11245 49.9978C5.55191 49.9649 5.88149 49.5822 5.84872 49.1428L4.84894 35.7356H45.1511L44.1512 49.1428C44.1184 49.5822 44.4481 49.965 44.8876 49.9978C44.9077 49.9993 44.9278 50 44.9477 50C45.3614 50 45.7113 49.6808 45.7426 49.2615L46.7513 35.7356H49.2021C49.6429 35.7356 50 35.3785 50 34.9378C50 34.497 49.6429 34.1399 49.2021 34.1399ZM25 25.4438C24.5594 25.4438 24.2021 25.801 24.2021 26.2417V28.5222L19.2315 23.5515C20.7411 22.7836 22.4229 22.3078 24.2021 22.1975V23.0502C24.2021 23.491 24.5594 23.8481 25 23.8481C25.4407 23.8481 25.7979 23.491 25.7979 23.0502V22.1975C27.5771 22.3078 29.2588 22.7835 30.7685 23.5515L25.7979 28.5221V26.2416C25.7979 25.801 25.4407 25.4438 25 25.4438ZM17.8148 24.3915L24.4359 31.0126C24.4571 31.0332 24.4753 31.0498 24.4944 31.0654C24.5036 31.073 24.5133 31.0796 24.5228 31.0866C24.5342 31.0951 24.5453 31.1039 24.5571 31.1118C24.5683 31.1194 24.58 31.1258 24.5915 31.1327C24.6023 31.1392 24.613 31.146 24.6241 31.152C24.6359 31.1583 24.6479 31.1635 24.6599 31.1693C24.6715 31.1748 24.683 31.1805 24.6949 31.1854C24.7066 31.1902 24.7185 31.1942 24.7303 31.1984C24.7431 31.203 24.7556 31.2079 24.7686 31.2118C24.7804 31.2153 24.7923 31.218 24.8043 31.221C24.8176 31.2244 24.8307 31.2281 24.8444 31.2308C24.8581 31.2334 24.872 31.2351 24.8859 31.2371C24.8978 31.2388 24.9094 31.2411 24.9214 31.2422C24.9476 31.2448 24.9738 31.2462 25.0001 31.2462C25.0264 31.2462 25.0527 31.2448 25.0788 31.2422C25.0911 31.2411 25.1029 31.2387 25.1149 31.237C25.1286 31.235 25.1422 31.2335 25.1559 31.2308C25.1697 31.228 25.1832 31.2242 25.1968 31.2208C25.2084 31.2179 25.2201 31.2153 25.2315 31.2118C25.2448 31.2078 25.2578 31.2029 25.2707 31.1981C25.2822 31.1939 25.2938 31.1902 25.3052 31.1855C25.3174 31.1804 25.3293 31.1745 25.3412 31.1688C25.3528 31.1633 25.3646 31.1582 25.3761 31.1521C25.3874 31.146 25.3982 31.139 25.4093 31.1325C25.4206 31.1256 25.4321 31.1193 25.4432 31.1119C25.455 31.104 25.466 31.0953 25.4773 31.0868C25.4869 31.0797 25.4967 31.073 25.5061 31.0653C25.5233 31.0512 25.5397 31.0361 25.5556 31.0205C25.5585 31.0178 25.5616 31.0154 25.5645 31.0126L32.1855 24.3915C35.346 26.5515 37.4897 30.0934 37.7405 34.1398H12.2597C12.5105 30.0934 14.6544 26.5516 17.8148 24.3915Z" fill="black"/>
<path d="M16.9933 38.3953H13.8018C13.3612 38.3953 13.0039 38.7525 13.0039 39.1932C13.0039 41.5522 11.2339 43.4877 8.88682 43.6953C8.45214 43.7337 8.12895 44.1143 8.1615 44.5494L8.51288 49.2614C8.54405 49.6806 8.89395 50 9.30767 49.9999C9.32756 49.9999 9.34767 49.9992 9.36778 49.9977C9.80724 49.9648 10.1368 49.5821 10.1041 49.1427L9.80735 45.1646C11.0219 44.8964 12.1298 44.262 12.9846 43.3333C13.8444 42.3995 14.3852 41.2345 14.5478 39.9909H16.9932C17.4338 39.9909 17.7911 39.6337 17.7911 39.193C17.7911 38.7522 17.4339 38.3953 16.9933 38.3953Z" fill="black"/>
<path d="M41.1133 43.6953C38.7661 43.4877 36.9961 41.5521 36.9961 39.1932C36.9961 38.7525 36.6389 38.3953 36.1982 38.3953H20.1848C19.7441 38.3953 19.3869 38.7525 19.3869 39.1932C19.3869 39.6339 19.7441 39.9911 20.1848 39.9911H35.4521C35.6147 41.2347 36.1555 42.3997 37.0152 43.3336C37.87 44.2622 38.9779 44.8965 40.1924 45.1648L39.8957 49.1429C39.863 49.5823 40.1927 49.9651 40.6321 49.9979C40.6522 49.9994 40.6723 50.0001 40.6922 50.0001C41.106 50.0001 41.4559 49.6809 41.4871 49.2616L41.8386 44.5496C41.8711 44.1144 41.548 43.7338 41.1133 43.6953Z" fill="black"/>
</svg>
